<svg width="314" height="314" viewBox="0 0 314 314" fill="none" xmlns="http://www.w3.org/2000/svg">
<g filter="url(#filter0_b_642_18121)">
<path d="M262.8 -2.23802e-06C280.722 -1.45464e-06 289.683 -1.06295e-06 296.528 3.48779C302.549 6.55574 307.444 11.4511 310.512 17.4723C314 24.3175 314 33.2783 314 51.2L314 262.8C314 280.722 314 289.683 310.512 296.528C307.444 302.549 302.549 307.444 296.528 310.512C289.683 314 280.722 314 262.8 314L51.2 314C33.2783 314 24.3175 314 17.4723 310.512C11.4511 307.444 6.55574 302.549 3.48778 296.528C-1.26624e-05 289.683 -1.22707e-05 280.722 -1.14874e-05 262.8L-2.23802e-06 51.2C-1.45464e-06 33.2783 -1.06295e-06 24.3175 3.48779 17.4723C6.55576 11.4511 11.4511 6.55573 17.4723 3.48778C24.3175 -1.26624e-05 33.2783 -1.22707e-05 51.2 -1.14873e-05L262.8 -2.23802e-06Z" fill="url(#paint0_linear_642_18121)" fill-opacity="0.32"/>
<path d="M262.8 0.594618C271.771 0.594619 278.463 0.595081 283.769 1.02862C289.068 1.46159 292.933 2.32354 296.258 4.0176C302.167 7.02854 306.971 11.833 309.982 17.7423C311.676 21.067 312.538 24.9316 312.971 30.2309C313.405 35.5371 313.405 42.2293 313.405 51.2L313.405 262.8C313.405 271.771 313.405 278.463 312.971 283.769C312.538 289.068 311.676 292.933 309.982 296.258C306.971 302.167 302.167 306.971 296.258 309.982C292.933 311.676 289.068 312.538 283.769 312.971C278.463 313.405 271.771 313.405 262.8 313.405L51.2 313.405C42.2293 313.405 35.5371 313.405 30.2309 312.971C24.9316 312.538 21.067 311.676 17.7423 309.982C11.8329 306.971 7.02855 302.167 4.0176 296.258C2.32353 292.933 1.46157 289.068 1.02861 283.769C0.595081 278.463 0.594623 271.771 0.594624 262.8L0.594633 51.2C0.594633 42.2293 0.595091 35.5371 1.02862 30.2309C1.46158 24.9316 2.32355 21.067 4.01761 17.7422C7.02856 11.8329 11.8329 7.02853 17.7423 4.01759C21.067 2.32352 24.9316 1.46158 30.2309 1.02861C35.5371 0.595071 42.2293 0.594609 51.2 0.594609L262.8 0.594618Z" stroke="#F1F1F1" stroke-width="1.18924"/>
</g>
<g clip-path="url(#clip0_642_18121)">
<rect x="12" y="12" width="290" height="290" rx="24" fill="white"/>
<path d="M49 12V302" stroke="#F3F3F3"/>
<path d="M73 12V302" stroke="#F3F3F3"/>
<path d="M121 12V302" stroke="#F3F3F3"/>
<path d="M169 12V302" stroke="#F3F3F3"/>
<path d="M217 12V302" stroke="#F3F3F3"/>
<path d="M265 12V302" stroke="#F3F3F3"/>
<path d="M97 12V302" stroke="#F3F3F3"/>
<path d="M145 12V302" stroke="#F3F3F3"/>
<path d="M193 12V302" stroke="#F3F3F3"/>
<path d="M241 12V302" stroke="#F3F3F3"/>
<path d="M289 12V302" stroke="#F3F3F3"/>
<path d="M25 13L25 301" stroke="#F3F3F3"/>
<path d="M302 49L12 49" stroke="#F3F3F3"/>
<path d="M302 73L12 73" stroke="#F3F3F3"/>
<path d="M302 121L12 121" stroke="#F3F3F3"/>
<path d="M302 169L12 169" stroke="#F3F3F3"/>
<path d="M302 217L12 217" stroke="#F3F3F3"/>
<path d="M302 265L12 265" stroke="#F3F3F3"/>
<path d="M302 97L12 97" stroke="#F3F3F3"/>
<path d="M302 145L12 145" stroke="#F3F3F3"/>
<path d="M302 193L12 193" stroke="#F3F3F3"/>
<path d="M302 241L12 241" stroke="#F3F3F3"/>
<path d="M300 289L14 289" stroke="#F3F3F3"/>
<path d="M307 26L11 26" stroke="#F3F3F3"/>
<g filter="url(#filter1_b_642_18121)">
<path d="M266 246C277.046 246 286 254.954 286 266C286 277.046 277.046 286 266 286C254.954 286 246 277.046 246 266C246 254.954 254.954 246 266 246Z" fill="#F7F7F7" fill-opacity="0.32"/>
<path d="M266 246.595C276.717 246.595 285.405 255.283 285.405 266C285.405 276.717 276.717 285.405 266 285.405C255.283 285.405 246.595 276.717 246.595 266C246.595 255.283 255.283 246.595 266 246.595Z" stroke="#F1F1F1" stroke-width="1.18924"/>
</g>
<path d="M265.167 257.667H263.5C259.333 257.667 257.667 259.333 257.667 263.5V268.5C257.667 272.667 259.333 274.333 263.5 274.333H268.5C272.667 274.333 274.333 272.667 274.333 268.5V266.833" stroke="#7F7C7C" stroke-width="1.5" stroke-linecap="round" stroke-linejoin="round"/>
<path d="M269.367 258.517L262.8 265.084C262.55 265.334 262.3 265.825 262.25 266.184L261.892 268.692C261.758 269.6 262.4 270.234 263.308 270.109L265.817 269.75C266.167 269.7 266.658 269.45 266.917 269.2L273.483 262.634C274.617 261.5 275.15 260.184 273.483 258.517C271.817 256.85 270.5 257.384 269.367 258.517Z" stroke="#7F7C7C" stroke-width="1.5" stroke-miterlimit="10" stroke-linecap="round" stroke-linejoin="round"/>
<path d="M268.425 259.458C268.983 261.45 270.541 263.008 272.541 263.575" stroke="#7F7C7C" stroke-width="1.5" stroke-miterlimit="10" stroke-linecap="round" stroke-linejoin="round"/>
</g>
<defs>
<filter id="filter0_b_642_18121" x="-19.0279" y="-19.0279" width="352.056" height="352.056" filterUnits="userSpaceOnUse" color-interpolation-filters="sRGB">
<feFlood flood-opacity="0" result="BackgroundImageFix"/>
<feGaussianBlur in="BackgroundImageFix" stdDeviation="9.51393"/>
<feComposite in2="SourceAlpha" operator="in" result="effect1_backgroundBlur_642_18121"/>
<feBlend mode="normal" in="SourceGraphic" in2="effect1_backgroundBlur_642_18121" result="shape"/>
</filter>
<filter id="filter1_b_642_18121" x="242" y="242" width="48" height="48" filterUnits="userSpaceOnUse" color-interpolation-filters="sRGB">
<feFlood flood-opacity="0" result="BackgroundImageFix"/>
<feGaussianBlur in="BackgroundImageFix" stdDeviation="2"/>
<feComposite in2="SourceAlpha" operator="in" result="effect1_backgroundBlur_642_18121"/>
<feBlend mode="normal" in="SourceGraphic" in2="effect1_backgroundBlur_642_18121" result="shape"/>
</filter>
<linearGradient id="paint0_linear_642_18121" x1="224.62" y1="8.24105" x2="104.235" y2="267.999" gradientUnits="userSpaceOnUse">
<stop stop-color="white"/>
<stop offset="1" stop-color="#CECECE"/>
</linearGradient>
<clipPath id="clip0_642_18121">
<rect x="12" y="12" width="290" height="290" rx="24" fill="white"/>
</clipPath>
</defs>
</svg>
